<svg width="950" height="250" viewBox="0 0 950 250" xmlns="http://www.w3.org/2000/svg" role="img" aria-label="NIS Nationwide IT Services">
  <rect width="950" height="250" fill="#ffffff"/>

  <g fill="#b42032">
    <circle cx="22" cy="30" r="6"/>
    <circle cx="38" cy="20" r="5"/>
    <circle cx="56" cy="14" r="4"/>
    <circle cx="74" cy="12" r="3"/>
    <circle cx="22" cy="62" r="8"/>
    <circle cx="14" cy="88" r="9"/>
    <circle cx="10" cy="116" r="9"/>
    <circle cx="10" cy="144" r="9"/>
    <circle cx="14" cy="172" r="9"/>
    <circle cx="24" cy="198" r="8"/>
    <circle cx="40" cy="222" r="5"/>
    <circle cx="58" cy="234" r="4"/>
    <circle cx="76" cy="238" r="3"/>
  </g>

  <text x="48" y="160" font-family="Segoe UI, Arial, sans-serif" font-size="112" font-weight="700" fill="#1e5f8f">NIS</text>
  <rect x="230" y="28" width="6" height="190" fill="#b42032"/>
  <text x="258" y="110" font-family="Segoe UI, Arial, sans-serif" font-size="66" font-weight="500" fill="#1e5f8f">Nationwide</text>
  <text x="258" y="188" font-family="Segoe UI, Arial, sans-serif" font-size="66" font-weight="500" fill="#1e5f8f">IT Services</text>

  <g transform="translate(760,22)">
    <circle cx="95" cy="95" r="88" fill="none" stroke="#2c68a7" stroke-width="8"/>
    <circle cx="95" cy="95" r="72" fill="#ffffff" stroke="#2c68a7" stroke-width="3"/>
    <path d="M30 142 C20 124, 15 108, 15 90 C15 64, 26 42, 43 27" fill="none" stroke="#2c68a7" stroke-width="7" stroke-linecap="round"/>
    <path d="M160 142 C170 124, 175 108, 175 90 C175 64, 164 42, 147 27" fill="none" stroke="#2c68a7" stroke-width="7" stroke-linecap="round"/>
    <text x="95" y="84" text-anchor="middle" font-family="Georgia, 'Times New Roman', serif" font-size="31" font-weight="700" fill="#9f1e2e">SDVOSB</text>
    <text x="95" y="122" text-anchor="middle" font-family="Georgia, 'Times New Roman', serif" font-size="27" font-weight="700" fill="#9f1e2e">CVE</text>
  </g>
</svg>
